<svg xmlns="http://www.w3.org/2000/svg" viewBox="0 0 450.59 430.36"><title>icon</title><path d="M5,430.36H445.59a5,5,0,0,0,5-5v-272H314.82v39.1a12,12,0,0,0,12,12h73V378.87H50.73V204.48H179.46v56.58H117a5,5,0,0,0-5,5V275a20,20,0,0,0,7.3,15.45l100.86,82.95a6,6,0,0,0,7.62,0l100.86-82.95A20,20,0,0,0,335.9,275v-8.95a5,5,0,0,0-5-5H271.53V153.38H0v272A5,5,0,0,0,5,430.36Z"/><path d="M336.19,68.7s2.58,7.05,12,7.05h68.14c9.62,0,5.46-7.76,5.46-7.76L395.13,9.54c-1.79-4.3-6.85-3.5-6.85-3.5H314.61c-6.3,0-3.5,6-3.5,6C313.51,17.21,336.19,68.7,336.19,68.7Z"/><path d="M329.78,93.73c-3.41-.47-7.45-1.85-9-5.72-4.37-10.56-34.62-78.27-34.62-78.27S282.18,0,269.53,0H82.6C69.55,0,66,9.74,66,9.74S36.15,78.18,31.35,88c-1.55,3.88-5.58,5.26-9,5.72H5a5,5,0,0,0-5,5v34.42H450.59V98.73a5,5,0,0,0-5-5Z"/></svg>