<svg version="1.1" xmlns="http://www.w3.org/2000/svg" xmlns:xlink="http://www.w3.org/1999/xlink"
	 style="position: absolute; width: 0; height: 0; overflow: hidden;" aria-hidden="true">
	<defs>
		<symbol id="icon--plus" viewBox="0 0 24 24">
			<title>plus</title>
			<path d="M18.984 12.984h-6v6h-1.969v-6h-6v-1.969h6v-6h1.969v6h6v1.969z"></path>
		</symbol>
		<symbol id="icon--plus--c" viewBox="0 0 24 24">
			<title>plus--c</title>
			<path
				d="M17.016 12.984v-1.969h-4.031v-4.031h-1.969v4.031h-4.031v1.969h4.031v4.031h1.969v-4.031h4.031zM12 2.016c5.531 0 9.984 4.453 9.984 9.984s-4.453 9.984-9.984 9.984-9.984-4.453-9.984-9.984 4.453-9.984 9.984-9.984z"></path>
		</symbol>
		<symbol id="icon--audio--record" viewBox="0 0 24 24">
			<title>audio--record</title>
			<path
				d="M12 11.016c0.563 0 0.984 0.422 0.984 0.984s-0.422 0.984-0.984 0.984-0.984-0.422-0.984-0.984 0.422-0.984 0.984-0.984zM12 16.5c2.484 0 4.5-2.016 4.5-4.5s-2.016-4.5-4.5-4.5-4.5 2.016-4.5 4.5 2.016 4.5 4.5 4.5zM12 2.016c5.531 0 9.984 4.453 9.984 9.984s-4.453 9.984-9.984 9.984-9.984-4.453-9.984-9.984 4.453-9.984 9.984-9.984z"></path>
		</symbol>
		<symbol id="icon--music--note" viewBox="0 0 24 24">
			<title>music--note</title>
			<path
				d="M12 3h6.984v3h-3.984v11.016h-0.047c-0.234 2.25-2.156 3.984-4.453 3.984-2.484 0-4.5-2.016-4.5-4.5s2.016-4.5 4.5-4.5c0.516 0 1.031 0.094 1.5 0.281v-9.281z"></path>
		</symbol>
		<symbol id="icon--gif" viewBox="0 0 24 24">
			<title>gif</title>
			<path
				d="M11.016 17.016h9.984l-3.188-4.219-2.531 3.188-1.781-2.156zM21.984 5.016c0.563 0 1.031 0.422 1.031 0.984v12c0 0.563-0.469 0.984-1.031 0.984h-12c-0.563 0-0.984-0.422-0.984-0.984v-12c0-0.563 0.422-0.984 0.984-0.984h12zM5.016 5.016h1.969v13.969h-1.969v-13.969zM0.984 5.016h2.016v13.969h-2.016v-13.969z"></path>
		</symbol>
		<symbol id="icon--jpeg" viewBox="0 0 24 24">
			<title>jpeg</title>
			<path
				d="M12 17.016c2.766 0 5.016-2.25 5.016-5.016s-2.25-5.016-5.016-5.016-5.016 2.25-5.016 5.016 2.25 5.016 5.016 5.016zM9 2.016h6l1.828 1.969h3.188c1.078 0 1.969 0.938 1.969 2.016v12c0 1.078-0.891 2.016-1.969 2.016h-16.031c-1.078 0-1.969-0.938-1.969-2.016v-12c0-1.078 0.891-2.016 1.969-2.016h3.188zM8.813 12c0-1.781 1.406-3.188 3.188-3.188s3.188 1.406 3.188 3.188-1.406 3.188-3.188 3.188-3.188-1.406-3.188-3.188z"></path>
		</symbol>
		<symbol id="icon--webp" viewBox="0 0 24 24">
			<title>webp</title>
			<path
				d="M12 17.016l-1.266-2.766-2.719-1.266 2.719-1.219 1.266-2.766 1.266 2.766 2.719 1.219-2.719 1.266zM12 18c2.766 0 5.016-2.25 5.016-5.016s-2.25-4.969-5.016-4.969-5.016 2.203-5.016 4.969 2.25 5.016 5.016 5.016zM9 3h6l1.828 2.016h3.188c1.078 0 1.969 0.891 1.969 1.969v12c0 1.078-0.891 2.016-1.969 2.016h-16.031c-1.078 0-1.969-0.938-1.969-2.016v-12c0-1.078 0.891-1.969 1.969-1.969h3.188z"></path>
		</symbol>
		<symbol id="icon--cancel" viewBox="0 0 24 24">
			<title>cancel</title>
			<path
				d="M17.016 15.609l-3.609-3.609 3.609-3.609-1.406-1.406-3.609 3.609-3.609-3.609-1.406 1.406 3.609 3.609-3.609 3.609 1.406 1.406 3.609-3.609 3.609 3.609zM12 2.016c5.531 0 9.984 4.453 9.984 9.984s-4.453 9.984-9.984 9.984-9.984-4.453-9.984-9.984 4.453-9.984 9.984-9.984z"></path>
		</symbol>
		<symbol id="icon--check--c" viewBox="0 0 24 24">
			<title>check--c</title>
			<path
				d="M9.984 17.016l9-9-1.406-1.453-7.594 7.594-3.563-3.563-1.406 1.406zM12 2.016c5.531 0 9.984 4.453 9.984 9.984s-4.453 9.984-9.984 9.984-9.984-4.453-9.984-9.984 4.453-9.984 9.984-9.984z"></path>
		</symbol>
		<symbol id="icon--close" viewBox="0 0 24 24">
			<title>close</title>
			<path
				d="M18.984 6.422l-5.578 5.578 5.578 5.578-1.406 1.406-5.578-5.578-5.578 5.578-1.406-1.406 5.578-5.578-5.578-5.578 1.406-1.406 5.578 5.578 5.578-5.578z"></path>
		</symbol>
		<symbol id="icon--bmp" viewBox="0 0 24 24">
			<title>bmp</title>
			<path
				d="M17.484 12c0.844 0 1.5-0.656 1.5-1.5s-0.656-1.5-1.5-1.5-1.5 0.656-1.5 1.5 0.656 1.5 1.5 1.5zM14.484 8.016c0.844 0 1.5-0.656 1.5-1.5s-0.656-1.5-1.5-1.5-1.5 0.656-1.5 1.5 0.656 1.5 1.5 1.5zM9.516 8.016c0.844 0 1.5-0.656 1.5-1.5s-0.656-1.5-1.5-1.5-1.5 0.656-1.5 1.5 0.656 1.5 1.5 1.5zM6.516 12c0.844 0 1.5-0.656 1.5-1.5s-0.656-1.5-1.5-1.5-1.5 0.656-1.5 1.5 0.656 1.5 1.5 1.5zM12 3c4.969 0 9 3.609 9 8.016 0 2.766-2.25 4.969-5.016 4.969h-1.734c-0.844 0-1.5 0.656-1.5 1.5 0 0.375 0.141 0.703 0.375 0.984s0.375 0.656 0.375 1.031c0 0.844-0.656 1.5-1.5 1.5-4.969 0-9-4.031-9-9s4.031-9 9-9z"></path>
		</symbol>
		<symbol id="icon--file--text" viewBox="0 0 24 24">
			<title>file--text</title>
			<path
				d="M12.984 9h5.531l-5.531-5.484v5.484zM15.984 14.016v-2.016h-7.969v2.016h7.969zM15.984 18v-2.016h-7.969v2.016h7.969zM14.016 2.016l6 6v12c0 1.078-0.938 1.969-2.016 1.969h-12c-1.078 0-2.016-0.891-2.016-1.969l0.047-16.031c0-1.078 0.891-1.969 1.969-1.969h8.016z"></path>
		</symbol>
		<symbol id="icon--png" viewBox="0 0 24 24">
			<title>png</title>
			<path
				d="M18.984 11.016v-6h-13.969v6h1.969v1.969h2.016v2.016h2.016v-2.016h1.969v2.016h2.016v-2.016h2.016v-1.969h1.969zM17.016 18v-2.016h-2.016v2.016h2.016zM12.984 18v-2.016h-1.969v2.016h1.969zM9 18v-2.016h-2.016v2.016h2.016zM18.984 3c1.078 0 2.016 0.938 2.016 2.016v13.969c0 1.078-0.938 2.016-2.016 2.016h-13.969c-1.078 0-2.016-0.938-2.016-2.016v-13.969c0-1.078 0.938-2.016 2.016-2.016h13.969zM6.984 9h2.016v2.016h-2.016v-2.016zM15 9h2.016v2.016h-2.016v-2.016zM11.016 9h1.969v2.016h2.016v1.969h-2.016v-1.969h-1.969v1.969h-2.016v-1.969h2.016v-2.016zM17.016 12.984v2.016h1.969v-2.016h-1.969zM6.984 12.984h-1.969v2.016h1.969v-2.016z"></path>
		</symbol>
		<symbol id="icon--wave" viewBox="0 0 24 24">
			<title>wave</title>
			<path
				d="M18.984 9.984h2.016v4.031h-2.016v-4.031zM15 18v-12h2.016v12h-2.016zM3 14.016v-4.031h2.016v4.031h-2.016zM11.016 21.984v-19.969h1.969v19.969h-1.969zM6.984 18v-12h2.016v12h-2.016z"></path>
		</symbol>
		<symbol id="icon--audio--headphones" viewBox="0 0 24 24">
			<title>audio--headphones</title>
			<path
				d="M12 0.984c4.969 0 9 4.031 9 9v7.031c0 1.641-1.359 3-3 3h-3v-8.016h3.984v-2.016c0-3.891-3.094-6.984-6.984-6.984s-6.984 3.094-6.984 6.984v2.016h3.984v8.016h-3c-1.641 0-3-1.359-3-3v-7.031c0-4.969 4.031-9 9-9z"></path>
		</symbol>
		<symbol id="icon--image" viewBox="0 0 24 24">
			<title>image</title>
			<path
				d="M8.484 13.5l-3.469 4.5h13.969l-4.5-6-3.469 4.5zM21 18.984c0 1.078-0.938 2.016-2.016 2.016h-13.969c-1.078 0-2.016-0.938-2.016-2.016v-13.969c0-1.078 0.938-2.016 2.016-2.016h13.969c1.078 0 2.016 0.938 2.016 2.016v13.969z"></path>
		</symbol>
		<symbol id="icon--file" viewBox="0 0 24 24">
			<title>file</title>
			<path
				d="M12.984 9h5.531l-5.531-5.484v5.484zM6 2.016h8.016l6 6v12c0 1.078-0.938 1.969-2.016 1.969h-12c-1.078 0-2.016-0.891-2.016-1.969l0.047-16.031c0-1.078 0.891-1.969 1.969-1.969z"></path>
		</symbol>
		<symbol id="icon--audio--microphone" viewBox="0 0 24 24">
			<title>audio--microphone</title>
			<path
				d="M17.297 12h1.688c0 3.422-2.719 6.234-6 6.703v3.281h-1.969v-3.281c-3.281-0.469-6-3.281-6-6.703h1.688c0 3 2.531 5.109 5.297 5.109s5.297-2.109 5.297-5.109zM12 15c-1.641 0-3-1.359-3-3v-6c0-1.641 1.359-3 3-3s3 1.359 3 3v6c0 1.641-1.359 3-3 3z"></path>
		</symbol>
		<symbol id="icon--external" viewBox="0 0 24 24">
			<title>external</title>
			<path
				d="M14.016 3h6.984v6.984h-2.016v-3.563l-9.797 9.797-1.406-1.406 9.797-9.797h-3.563v-2.016zM18.984 18.984v-6.984h2.016v6.984c0 1.078-0.938 2.016-2.016 2.016h-13.969c-1.125 0-2.016-0.938-2.016-2.016v-13.969c0-1.078 0.891-2.016 2.016-2.016h6.984v2.016h-6.984v13.969h13.969z"></path>
		</symbol>
		<symbol id="icon--mpeg" viewBox="0 0 24 24">
			<title>mpeg</title>
			<path
				d="M18 9v-2.016h-2.016v2.016h2.016zM18 12.984v-1.969h-2.016v1.969h2.016zM18 17.016v-2.016h-2.016v2.016h2.016zM8.016 9v-2.016h-2.016v2.016h2.016zM8.016 12.984v-1.969h-2.016v1.969h2.016zM8.016 17.016v-2.016h-2.016v2.016h2.016zM18 3h2.016v18h-2.016v-2.016h-2.016v2.016h-7.969v-2.016h-2.016v2.016h-2.016v-18h2.016v2.016h2.016v-2.016h7.969v2.016h2.016v-2.016z"></path>
		</symbol>
		<symbol id="icon--movie" viewBox="0 0 24 24">
			<title>movie</title>
			<path
				d="M18 3.984h3.984v14.016c0 1.078-0.891 2.016-1.969 2.016h-16.031c-1.078 0-1.969-0.938-1.969-2.016v-12c0-1.078 0.891-2.016 1.969-2.016h1.031l1.969 4.031h3l-1.969-4.031h1.969l2.016 4.031h3l-2.016-4.031h2.016l2.016 4.031h3z"></path>
		</symbol>
		<symbol id="icon--play" viewBox="0 0 24 24">
			<title>play</title>
			<path d="M8.016 5.016l10.969 6.984-10.969 6.984v-13.969z"></path>
		</symbol>
		<symbol id="icon--play--o" viewBox="0 0 24 24">
			<title>play--o</title>
			<path
				d="M12 20.016c4.406 0 8.016-3.609 8.016-8.016s-3.609-8.016-8.016-8.016-8.016 3.609-8.016 8.016 3.609 8.016 8.016 8.016zM12 2.016c5.531 0 9.984 4.453 9.984 9.984s-4.453 9.984-9.984 9.984-9.984-4.453-9.984-9.984 4.453-9.984 9.984-9.984zM9.984 16.5v-9l6 4.5z"></path>
		</symbol>
		<symbol id="icon--minus" viewBox="0 0 24 24">
			<title>minus</title>
			<path d="M18.984 12.984h-13.969v-1.969h13.969v1.969z"></path>
		</symbol>
		<symbol id="icon--settings" viewBox="0 0 24 24">
			<title>settings</title>
			<path
				d="M12 15.516c1.922 0 3.516-1.594 3.516-3.516s-1.594-3.516-3.516-3.516-3.516 1.594-3.516 3.516 1.594 3.516 3.516 3.516zM19.453 12.984l2.109 1.641c0.188 0.141 0.234 0.422 0.094 0.656l-2.016 3.469c-0.141 0.234-0.375 0.281-0.609 0.188l-2.484-0.984c-0.516 0.375-1.078 0.75-1.688 0.984l-0.375 2.625c-0.047 0.234-0.234 0.422-0.469 0.422h-4.031c-0.234 0-0.422-0.188-0.469-0.422l-0.375-2.625c-0.609-0.234-1.172-0.563-1.688-0.984l-2.484 0.984c-0.234 0.094-0.469 0.047-0.609-0.188l-2.016-3.469c-0.141-0.234-0.094-0.516 0.094-0.656l2.109-1.641c-0.047-0.328-0.047-0.656-0.047-0.984s0-0.656 0.047-0.984l-2.109-1.641c-0.188-0.141-0.234-0.422-0.094-0.656l2.016-3.469c0.141-0.234 0.375-0.281 0.609-0.188l2.484 0.984c0.516-0.375 1.078-0.75 1.688-0.984l0.375-2.625c0.047-0.234 0.234-0.422 0.469-0.422h4.031c0.234 0 0.422 0.188 0.469 0.422l0.375 2.625c0.609 0.234 1.172 0.563 1.688 0.984l2.484-0.984c0.234-0.094 0.469-0.047 0.609 0.188l2.016 3.469c0.141 0.234 0.094 0.516-0.094 0.656l-2.109 1.641c0.047 0.328 0.047 0.656 0.047 0.984s0 0.656-0.047 0.984z"></path>
		</symbol>
		<symbol id="icon--txt" viewBox="0 0 24 24">
			<title>txt</title>
			<path
				d="M3.984 5.016h16.031v1.969h-16.031v-1.969zM3.984 15v-2.016h16.031v2.016h-16.031zM20.016 9v2.016h-16.031v-2.016h16.031zM14.016 17.016v1.969h-10.031v-1.969h10.031z"></path>
		</symbol>
		<symbol id="icon--video" viewBox="0 0 24 24">
			<title>video</title>
			<path
				d="M17.016 10.5l3.984-3.984v10.969l-3.984-3.984v3.516c0 0.563-0.469 0.984-1.031 0.984h-12c-0.563 0-0.984-0.422-0.984-0.984v-10.031c0-0.563 0.422-0.984 0.984-0.984h12c0.563 0 1.031 0.422 1.031 0.984v3.516z"></path>
		</symbol>
		<symbol id="icon--audio" viewBox="0 0 24 24">
			<title>audio</title>
			<path
				d="M14.016 3.234c4.031 0.891 6.984 4.5 6.984 8.766s-2.953 7.875-6.984 8.766v-2.063c2.906-0.844 4.969-3.516 4.969-6.703s-2.063-5.859-4.969-6.703v-2.063zM16.5 12c0 1.781-0.984 3.281-2.484 4.031v-8.063c1.5 0.75 2.484 2.25 2.484 4.031zM3 9h3.984l5.016-5.016v16.031l-5.016-5.016h-3.984v-6z"></path>
		</symbol>
		<symbol id="icon--video--o" viewBox="0 0 32 32">
			<title>video--o</title>
			<path
				d="M24 21.333l-5.333-4.267v4.267h-10.667v-10.667h10.667v4.267l5.333-4.267zM26.667 5.333h-21.333c-1.473 0-2.667 1.194-2.667 2.667v16c0 1.473 1.194 2.667 2.667 2.667h21.333c1.473 0 2.667-1.194 2.667-2.667v-16c0-1.48-1.2-2.667-2.667-2.667z"></path>
		</symbol>
		<symbol id="icon--css" viewBox="0 0 32 32">
			<title>css</title>
			<path
				d="M6.667 4l-0.867 4.453h18.12l-0.587 2.88h-18.107l-0.88 4.44h18.12l-1.013 5.080-7.307 2.413-6.333-2.413 0.44-2.187h-4.453l-1.053 5.333 10.467 4 12.067-4 1.6-8.040 0.32-1.613 2.053-10.347h-22.587z"></path>
		</symbol>
		<symbol id="icon--html" viewBox="0 0 32 32">
			<title>html</title>
			<path
				d="M16 23.413l5.427-1.507 0.733-8.133h-9.653l-0.24-2.707h10.133l0.267-2.653h-13.333l0.747 8.013h9.187l-0.307 3.44-2.96 0.8-2.96-0.8-0.187-2.213h-2.667l0.387 4.253 5.427 1.507zM5.427 4h21.147l-1.907 21.6-8.667 2.4-8.667-2.4-1.907-21.6z"></path>
		</symbol>
		<symbol id="icon--code--braces" viewBox="0 0 32 32">
			<title>code--braces</title>
			<path
				d="M10.667 4c-1.473 0-2.667 1.194-2.667 2.667v5.333c0 1.473-1.194 2.667-2.667 2.667h-1.333v2.667h1.333c1.473 0 2.667 1.194 2.667 2.667v5.333c0 1.473 1.194 2.667 2.667 2.667h2.667v-2.667h-2.667v-6.667c0-1.473-1.194-2.667-2.667-2.667 1.473 0 2.667-1.194 2.667-2.667v-6.667h2.667v-2.667zM21.333 4c1.473 0 2.667 1.194 2.667 2.667v5.333c0 1.473 1.194 2.667 2.667 2.667h1.333v2.667h-1.333c-1.473 0-2.667 1.194-2.667 2.667v5.333c0 1.473-1.194 2.667-2.667 2.667h-2.667v-2.667h2.667v-6.667c0-1.473 1.194-2.667 2.667-2.667-1.473 0-2.667-1.194-2.667-2.667v-6.667h-2.667v-2.667h2.667z"></path>
		</symbol>
		<symbol id="icon--code--brackets" viewBox="0 0 32 32">
			<title>code--brackets</title>
			<path
				d="M20 5.333v2.667h4v16h-4v2.667h6.667v-21.333zM5.333 5.333v21.333h6.667v-2.667h-4v-16h4v-2.667h-6.667z"></path>
		</symbol>
		<symbol id="icon--code--tags" viewBox="0 0 32 32">
			<title>code--tags</title>
			<path
				d="M19.467 22.133l6.133-6.133-6.133-6.133 1.867-1.867 8 8-8 8-1.867-1.867zM12.533 22.133l-6.133-6.133 6.133-6.133-1.867-1.867-8 8 8 8 1.867-1.867z"></path>
		</symbol>
		<symbol id="icon--markdown" viewBox="0 0 32 32">
			<title>markdown</title>
			<path
				d="M2.667 21.333v-10.667h2.667l4 4 4-4h2.667v10.667h-2.667v-6.893l-4 4-4-4v6.893h-2.667zM21.333 10.667h4v5.333h3.333l-5.333 6-5.333-6h3.333v-5.333z"></path>
		</symbol>
		<symbol id="icon--audio--music" viewBox="0 0 32 32">
			<title>audio--music</title>
			<path
				d="M28 4v16.667c0 2.577-2.089 4.667-4.667 4.667s-4.667-2.089-4.667-4.667c0-2.577 2.089-4.667 4.667-4.667 0.72 0 1.4 0.16 2 0.453v-7.827l-13.333 2.84v11.867c0 2.577-2.089 4.667-4.667 4.667s-4.667-2.089-4.667-4.667c0-2.577 2.089-4.667 4.667-4.667 0.72 0 1.4 0.16 2 0.453v-11.12l18.667-4z"></path>
		</symbol>
		<symbol id="icon--pdf" viewBox="0 0 32 32">
			<title>pdf</title>
			<path
				d="M28.18 16.354c-2.793 0.169-5.403 0.72-7.856 1.6-1.663-1.843-3.249-3.89-4.503-6.147l0.321-1.254c0.817-2.458 1.593-4.766 1.593-6.713 0-2.11-1.71-3.82-3.82-3.82s-3.82 1.71-3.82 3.82c0 2.397 1.28 5.317 2.683 8.116-1.154 3.847-2.436 7.101-3.949 10.223l-1.375 0.195c-2.567 0.98-4.766 1.825-6.277 3.037l-0.075 0.088c-0.68 0.692-1.099 1.642-1.099 2.689 0 2.115 1.709 3.83 3.822 3.84 0.019 0 0.040 0.001 0.062 0.001 1.025 0 1.954-0.414 2.629-1.083l0.116-0.102c1.273-1.518 2.778-4.262 4.085-6.747 2.46-1.066 5.489-2.12 8.602-2.968 2.792 1.671 5.683 2.788 8.831 2.899 2.134 0.001 3.844-1.709 3.844-3.819s-1.71-3.82-3.82-3.82zM29.229 20.174c0 0.002 0 0.004 0 0.007 0 0.575-0.466 1.042-1.042 1.042-0.002 0-0.005 0-0.007-0-1.711-0.11-3.293-0.564-4.711-1.291 1.428-0.395 3.011-0.695 4.645-0.809 0.068-0.004 0.070-0.004 0.073-0.004 0.575 0 1.042 0.466 1.042 1.042 0 0.005-0 0.010-0 0.014zM17.484 18.723c-1.695 0.49-3.336 1.069-4.8 1.62 0.749-1.777 1.362-3.602 1.927-5.249 0.91 1.357 1.855 2.542 2.888 3.645zM12.861 3.82c0-0.581 0.471-1.052 1.052-1.052s1.052 0.471 1.052 1.052c-0.168 1.489-0.492 2.846-0.959 4.135-0.73-2.038-1.145-3.365-1.145-4.135zM6.631 25.695c-0.686 1.244-1.378 2.304-2.139 3.308-0.128 0.098-0.367 0.199-0.629 0.199-0.016 0-0.031-0-0.046-0.001 0 0-0.002 0-0.005 0-0.575 0-1.042-0.466-1.042-1.042 0-0.002 0-0.005 0-0.007 0.007-0.257 0.095-0.493 0.24-0.683 1.037-0.665 2.232-1.263 3.49-1.732z"></path>
		</symbol>
		<symbol id="icon--svg" viewBox="0 0 32 32">
			<title>svg</title>
			<path
				d="M24.667 2.667c1.105 0 2 0.895 2 2s-0.895 2-2 2c-0.307 0-0.6-0.067-0.867-0.2l-4.92 4.933 0.453 0.6c2.92-1.68 6.347-2.667 10-2.667l1.333 0.040v2.68l-1.333-0.053c-3.44 0-6.667 1-9.333 2.72 0 2.916-2.364 5.28-5.28 5.28-1.72 2.667-2.72 5.893-2.72 9.333l0.053 1.333h-2.68l-0.040-1.333c0-3.653 0.987-7.080 2.667-10l-0.6-0.453-4.933 4.92c0.133 0.267 0.2 0.56 0.2 0.867 0 1.105-0.895 2-2 2s-2-0.895-2-2c0-1.105 0.895-2 2-2 0.307 0 0.6 0.067 0.867 0.2l4.92-4.933c-0.707-0.893-1.12-2.040-1.12-3.267 0-2.946 2.388-5.333 5.333-5.333 1.227 0 2.373 0.413 3.267 1.12l4.933-4.92c-0.133-0.267-0.2-0.56-0.2-0.867 0-1.105 0.895-2 2-2zM14.667 12c-1.473 0-2.667 1.194-2.667 2.667s1.194 2.667 2.667 2.667c1.473 0 2.667-1.194 2.667-2.667s-1.194-2.667-2.667-2.667z"></path>
		</symbol>
		<symbol id="icon--tdl" viewBox="0 0 34 32">
			<title>tdl</title>
			<path
				d="M0.372 32h32.761c0.205 0 0.372-0.166 0.372-0.372v-20.225h-10.095v2.907c0 0.493 0.399 0.892 0.892 0.892h5.428v12.968h-25.957v-12.967h9.572v4.207h-4.644c-0.205 0-0.372 0.166-0.372 0.372v0.665c0 0.462 0.21 0.874 0.54 1.147l7.502 6.17c0.076 0.063 0.175 0.102 0.283 0.102s0.207-0.038 0.284-0.102l7.499-6.167c0.331-0.275 0.54-0.686 0.54-1.146 0-0.001 0-0.002 0-0.003v-0.665c0-0.205-0.166-0.372-0.372-0.372h-4.415v-6.613h0.027v-1.393h-20.218v20.225c0.001 0.205 0.167 0.37 0.372 0.37 0 0 0 0 0 0z"></path>
			<path
				d="M24.998 5.108s0.192 0.524 0.892 0.524h5.067c0.715 0 0.406-0.577 0.406-0.577l-1.982-4.346c-0.133-0.32-0.509-0.26-0.509-0.26h-5.478c-0.468 0-0.26 0.446-0.26 0.446 0.178 0.384 1.865 4.213 1.865 4.213z"></path>
			<path
				d="M24.521 6.969c-0.254-0.035-0.554-0.138-0.669-0.425-0.325-0.785-2.574-5.82-2.574-5.82s-0.296-0.724-1.237-0.724h-13.899c-0.97 0-1.234 0.724-1.234 0.724s-2.22 5.089-2.576 5.819c-0.115 0.288-0.415 0.391-0.669 0.425h-1.29c-0.205 0-0.372 0.166-0.372 0.372v2.559h33.504v-2.559c0-0.205-0.166-0.372-0.372-0.372z"></path>
		</symbol>
		<symbol id="icon--file--csv" viewBox="0 0 32 32">
			<title>file--csv</title>
			<path
				d="M17.333 12h7.333l-7.333-7.333v7.333zM8 2.667h10.667l8 8v16c0 1.473-1.194 2.667-2.667 2.667h-16c-1.48 0-2.667-1.2-2.667-2.667v-21.333c0-1.48 1.187-2.667 2.667-2.667zM18.667 20v-5.333h-5.333v5.333h3.067c0.4 2.667-0.4 4-3.467 5.84l1.533 1.093c2.867-1.6 4.2-5.6 4.2-6.933z"></path>
		</symbol>
	</defs>
</svg>
